<?xml version="1.0" encoding="UTF-8"?>
<svg id="Layer_1" data-name="Layer 1" xmlns="http://www.w3.org/2000/svg" width="30" height="30" viewBox="0 0 30 30">
  <defs>
    <style>
      .cls-1 {
        fill: #094c47;
      }
    </style>
  </defs>
  <g id="Hp0vEi.tif">
    <g>
      <path class="cls-1" d="M26,15c-.97-1.5-1.94-2.99-2.89-4.49-.34-.54-.79-.79-1.44-.79-4.44,.01-8.87,.01-13.31,0-.64,0-1.1,.24-1.44,.78-.96,1.51-1.94,3-2.92,4.51-.1,.15-.18,.31-.24,.47-.17,.54,.02,.98,.38,1.38,1.68,1.89,3.36,3.78,5.04,5.66,1.58,1.78,3.16,3.55,4.74,5.33,.28,.32,.62,.53,1.06,.54,.47,0,.81-.23,1.1-.56,3.25-3.66,6.51-7.32,9.76-10.98,.55-.62,.59-1.16,.14-1.85Zm-4.77-4.12c-.87,1.34-1.73,2.67-2.6,4.03-.88-1.36-1.73-2.68-2.6-4.03h5.21Zm-3.64,4.48h-5.17c.87-1.34,1.71-2.65,2.58-4,.87,1.35,1.72,2.66,2.58,4Zm-3.61-4.49c-.87,1.35-1.72,2.66-2.6,4.02-.87-1.35-1.72-2.67-2.6-4.02h5.2Zm-6.24,.44c.88,1.36,1.73,2.68,2.61,4.04H5.11c.88-1.36,1.74-2.68,2.62-4.04Zm6.11,14.75c-2.82-3.17-5.64-6.34-8.5-9.56h1.22c1.39,0,2.78,0,4.16,0,.17,0,.26,.04,.31,.22,.94,3.06,1.88,6.12,2.82,9.19,.01,.04,.02,.09-.01,.16Zm1.19-.35h-.06c-.94-3.06-1.88-6.11-2.83-9.19h5.72c-.95,3.08-1.89,6.14-2.83,9.19Zm1.13,.34s-.04-.02-.06-.02c.98-3.17,1.95-6.34,2.93-9.52h5.62c-2.85,3.21-5.67,6.38-8.49,9.54Zm3.5-10.7c.88-1.36,1.73-2.68,2.61-4.04,.88,1.36,1.74,2.68,2.61,4.04h-5.23Z"/>
      <path class="cls-1" d="M15.57,3.99c0,.57,0,1.14,0,1.71,0,.41-.22,.67-.55,.67-.33,0-.56-.26-.57-.66,0-1.15,0-2.3,0-3.44,0-.41,.24-.66,.57-.65,.34,0,.54,.25,.54,.67,0,.57,0,1.14,0,1.71Z"/>
      <path class="cls-1" d="M25.37,6.15c-.12,.21-.18,.38-.3,.5-.57,.59-1.15,1.17-1.73,1.74-.28,.28-.61,.29-.84,.06-.24-.23-.23-.57,.04-.84,.58-.59,1.17-1.18,1.75-1.76,.18-.18,.42-.3,.65-.15,.16,.1,.27,.29,.43,.45Z"/>
      <path class="cls-1" d="M7.54,8.44c-.23,.23-.55,.23-.82-.03-.6-.59-1.2-1.19-1.79-1.8-.18-.18-.26-.42-.13-.63,.1-.16,.29-.27,.46-.41,.2,.11,.35,.16,.46,.26,.61,.59,1.2,1.19,1.8,1.79,.25,.26,.26,.6,.04,.82Z"/>
      <path class="cls-1" d="M2.93,15.92c.01,.28-.15,.5-.44,.55-.23,.04-.46,.03-.69,.05-.22-.01-.45-.01-.67-.05-.28-.05-.46-.3-.44-.56,.02-.27,.22-.5,.5-.51,.42-.02,.84-.02,1.25,0,.28,.01,.48,.25,.49,.52Z"/>
      <path class="cls-1" d="M29.31,15.91c.02,.27-.17,.54-.47,.56-.43,.03-.87,.03-1.31,0-.32-.03-.49-.28-.46-.59,.02-.28,.23-.48,.54-.5,.19-.01,.39,0,.58,0s.37,0,.56,0c.31,.02,.54,.24,.55,.52Z"/>
      <path class="cls-1" d="M15.56,7.7c0,.3-.25,.55-.54,.56-.3,0-.57-.27-.57-.57,0-.29,.26-.55,.56-.54,.3,0,.55,.25,.55,.55Z"/>
    </g>
  </g>
</svg>