<?xml version="1.0" encoding="UTF-8"?>
<svg id="Layer_1" data-name="Layer 1" xmlns="http://www.w3.org/2000/svg" width="30" height="30" viewBox="0 0 30 30">
  <defs>
    <style>
      .cls-1 {
        fill: #094c47;
      }
    </style>
  </defs>
  <g id="vMEnI7.tif">
    <g>
      <path class="cls-1" d="M26.01,10.69c-.26-.37-.54-.73-.82-1.09-.36-.45-.53-.94-.51-1.52,.02-.55,.03-1.11,0-1.66-.05-.82-.46-1.43-1.21-1.78-.34-.16-.71-.31-1.08-.38-1.02-.19-1.75-.73-2.26-1.63-.23-.41-.55-.77-.89-1.1-.46-.44-1.04-.62-1.67-.46-.63,.15-1.25,.37-1.87,.58-.47,.15-.92,.17-1.39,0-.46-.17-.92-.33-1.39-.48-1.12-.34-1.88-.1-2.61,.81-.26,.33-.5,.67-.72,1.03-.36,.6-.88,.95-1.55,1.12-.47,.12-.93,.26-1.37,.44-.85,.34-1.31,.99-1.35,1.91-.03,.5-.02,1,0,1.5,.03,.64-.15,1.19-.56,1.69-.3,.36-.59,.74-.85,1.14-.54,.83-.54,1.68,0,2.51,.25,.39,.53,.76,.83,1.12,.43,.51,.62,1.07,.58,1.74-.03,.52-.03,1.04,0,1.55,.05,.8,.45,1.4,1.17,1.75,.27,.13,.55,.23,.85,.36v8.43c0,.62,.29,.83,.89,.65,2.18-.67,4.36-1.35,6.55-2.01,.14-.04,.31-.04,.44,0,2.17,.66,4.34,1.31,6.49,2.01,.57,.19,.96-.06,.95-.71-.03-2.62-.01-5.25-.01-7.87,0-.5,0-.51,.46-.68,.98-.36,1.54-1.04,1.57-2.1,.02-.49,0-.98-.01-1.47-.03-.6,.15-1.12,.54-1.59,.28-.34,.54-.69,.79-1.05,.64-.92,.64-1.85,0-2.77Zm-11.55,14.62q0,.55-.51,.71c-1.74,.54-3.47,1.08-5.21,1.61-.09,.03-.17,.04-.28,.07v-7.53c.32,.08,.59,.24,.78,.5,.24,.31,.45,.64,.68,.96,.22,.29,.43,.59,.67,.86,.61,.64,1.36,.77,2.18,.54,.4-.11,.79-.27,1.19-.4,.15-.05,.31-.1,.49-.16v2.84Zm7.09,2.4c-.63-.19-1.26-.38-1.88-.58-1.29-.4-2.57-.8-3.86-1.19-.2-.06-.27-.14-.26-.36,.01-1.03,0-2.06,0-3.13,.3,.1,.57,.2,.84,.29,.35,.11,.69,.24,1.04,.32,.87,.19,1.59-.09,2.14-.76,.34-.42,.63-.87,.94-1.31,.26-.37,.55-.7,1.03-.82v7.54Zm3.62-14.97c-.3,.43-.62,.86-.94,1.27-.44,.57-.65,1.21-.63,1.93,0,.55,.02,1.09,0,1.64,0,.49-.25,.83-.71,1-.53,.19-1.07,.35-1.61,.52-.64,.2-1.15,.57-1.54,1.12-.27,.38-.52,.77-.79,1.14-.5,.69-.85,.8-1.67,.54-.32-.1-.64-.21-.95-.34-.91-.37-1.81-.34-2.71,.02-.37,.15-.75,.27-1.13,.39-.5,.15-.92,.02-1.23-.4-.23-.31-.46-.61-.66-.94-.54-.9-1.31-1.46-2.34-1.7-.41-.1-.8-.24-1.19-.39-.41-.16-.63-.49-.64-.93-.01-.35,0-.71,0-1.22,.16-1.01-.22-2-.99-2.86-.19-.21-.34-.45-.51-.67-.38-.52-.39-1.04,0-1.56,.2-.27,.39-.55,.61-.8,.68-.77,.98-1.66,.9-2.69-.03-.43-.02-.86,0-1.28,.01-.44,.24-.77,.65-.92,.53-.19,1.07-.36,1.61-.52,.69-.21,1.24-.6,1.64-1.2,.27-.39,.53-.79,.81-1.17,.45-.6,.79-.71,1.52-.49,.44,.14,.88,.3,1.32,.45,.69,.24,1.37,.24,2.06,0,.53-.18,1.07-.36,1.61-.53,.42-.13,.78,0,1.05,.33,.26,.32,.52,.66,.74,1.01,.54,.9,1.3,1.47,2.33,1.71,.38,.09,.75,.22,1.12,.35,.47,.17,.72,.51,.73,1.01,0,.43,.02,.86-.01,1.28-.07,1,.24,1.86,.89,2.62,.25,.3,.48,.62,.7,.94,.3,.44,.3,.89,0,1.33Z"/>
      <path class="cls-1" d="M15.01,4.31c-4.22,0-7.67,3.46-7.66,7.7,0,4.23,3.44,7.67,7.66,7.66,4.22,0,7.65-3.45,7.65-7.68,0-4.23-3.43-7.68-7.65-7.69Zm-.02,14.27c-3.62,0-6.55-2.96-6.55-6.59,0-3.63,2.96-6.59,6.57-6.58,3.61,0,6.55,2.97,6.55,6.6,0,3.63-2.95,6.58-6.57,6.57Z"/>
    </g>
  </g>
  <g>
    <path class="cls-1" d="M16.48,9.03c0,.73-.59,1.33-1.33,1.33s-1.33-.59-1.33-1.33,.59-1.33,1.33-1.33,1.33,.59,1.33,1.33"/>
    <path class="cls-1" d="M16.32,12.26c0,.65-.52,1.17-1.17,1.17s-1.17-.52-1.17-1.17,.52-1.17,1.17-1.17,1.17,.52,1.17,1.17"/>
    <path class="cls-1" d="M14.45,15c0,.65-.52,1.17-1.17,1.17s-1.17-.52-1.17-1.17,.52-1.17,1.17-1.17,1.17,.52,1.17,1.17"/>
    <path class="cls-1" d="M18.19,15c0,.65-.52,1.17-1.17,1.17s-1.17-.52-1.17-1.17,.52-1.17,1.17-1.17,1.17,.52,1.17,1.17"/>
    <path class="cls-1" d="M19.92,11.89c0,.65-.52,1.17-1.17,1.17s-1.17-.52-1.17-1.17,.52-1.17,1.17-1.17,1.17,.52,1.17,1.17"/>
    <path class="cls-1" d="M12.73,11.89c0,.65-.52,1.17-1.17,1.17s-1.17-.52-1.17-1.17,.52-1.17,1.17-1.17,1.17,.52,1.17,1.17"/>
  </g>
</svg>