<?xml version="1.0" encoding="UTF-8"?>
<svg id="Layer_1" data-name="Layer 1" xmlns="http://www.w3.org/2000/svg" width="30" height="30" viewBox="0 0 30 30">
  <defs>
    <style>
      .cls-1, .cls-2 {
        fill: #094c47;
      }

      .cls-2 {
        stroke: #ffffff;
        stroke-miterlimit: 10;
        stroke-width: .25px;
      }
    </style>
  </defs>
  <g id="XjtaiV.tif">
    <path class="cls-2" d="M27.42,20.98c-.02-.16-.06-.32-.08-.48-.49-2.96-.97-5.93-1.46-8.89-.07-.44-.39-.61-.78-.4-1.25,.66-2.5,1.33-3.74,2-.29,.16-.37,.38-.25,.69,.07,.19,.14,.37,.22,.57-.8,.33-1.58,.3-2.37,.03-1.28-.44-2.54-.37-3.79,.16-.1,.04-.25,.04-.35,0-.98-.41-1.99-.56-3.04-.35-.47,.1-.92,.26-1.38,.36-.59,.12-1.17,.06-1.73-.2,.08-.2,.15-.38,.22-.56,.12-.32,.04-.53-.25-.69-1.25-.67-2.49-1.34-3.74-2-.39-.21-.71-.04-.78,.4-.51,3.12-1.03,6.23-1.54,9.35-.05,.3,.06,.5,.35,.61,.68,.25,1.35,.49,2.03,.73,.33,.12,.54,.01,.68-.31,.08-.18,.15-.36,.23-.56,.33,.26,.65,.5,.95,.76,.09,.08,.17,.21,.2,.33,.13,.55,.45,.95,.97,1.17,.18,.08,.39,.11,.59,.16,.11,.93,.64,1.48,1.61,1.59,.04,.47,.21,.89,.58,1.21,.38,.32,.82,.42,1.31,.37,.02,.07,.04,.13,.05,.18,.28,.96,1.33,1.44,2.23,1.02,.16-.08,.25-.07,.39,.05,.84,.76,2.11,.48,2.57-.55,.02-.06,.05-.11,.08-.16,.5,.16,.97,.15,1.42-.11,.44-.26,.69-.66,.79-1.15,1.13,0,1.53-.34,1.9-1.59,1.24-.24,1.72-.94,1.49-2.16,0-.05,.03-.14,.07-.17,.38-.21,.77-.41,1.16-.63,.04,.09,.08,.17,.11,.25,.13,.29,.35,.4,.65,.29,.69-.24,1.39-.49,2.08-.75,.26-.1,.37-.3,.33-.58Zm-22.52,.26c-.44-.16-.85-.31-1.3-.47,.46-2.79,.91-5.58,1.38-8.41,.97,.52,1.91,1.03,2.87,1.54-.99,2.46-1.96,4.89-2.95,7.34Zm4.04,1.51c-.08,.07-.21,.08-.26,.09-.33,0-.53-.12-.65-.36-.12-.24-.1-.48,.08-.68,.2-.22,.41-.44,.63-.64,.24-.21,.59-.19,.82,.02,.23,.21,.31,.57,.12,.81-.22,.28-.49,.51-.75,.75Zm1.76,1.49c-.28,.27-.68,.28-.94,.03-.26-.26-.27-.65,.01-.93,.38-.4,.77-.78,1.17-1.17,.21-.21,.46-.26,.74-.14,.24,.11,.36,.31,.41,.6-.08,.15-.13,.33-.25,.45-.37,.4-.76,.78-1.14,1.15Zm1.61,1.6c-.28,.28-.68,.29-.93,.04-.27-.26-.27-.65,.02-.95,.38-.39,.77-.78,1.17-1.17,.2-.2,.45-.24,.72-.13,.24,.1,.38,.34,.42,.62-.08,.15-.14,.32-.26,.45-.36,.39-.75,.76-1.13,1.14Zm1.39,1.56c-.26,0-.46-.11-.58-.34-.12-.22-.13-.47,.04-.66,.18-.22,.38-.42,.6-.6,.2-.16,.44-.15,.66-.03,.21,.12,.32,.31,.33,.49,0,.47-.65,1.14-1.05,1.14Zm2.55,.18c-.29,.24-.67,.18-.94-.15,.32-.38,.47-.83,.4-1.34,.02,0,.04,0,.06-.01,.17,.18,.35,.35,.52,.54,.28,.31,.25,.72-.05,.96Zm5.87-4.43c-.03,.25-.17,.44-.41,.53-.23,.08-.45,.05-.64-.1-.07-.06-.13-.12-.19-.18-.96-.96-1.91-1.91-2.87-2.87-.06-.06-.11-.12-.18-.17-.2-.15-.47-.13-.64,.05-.17,.18-.19,.44-.03,.64,.05,.06,.11,.12,.17,.18,.97,.97,1.94,1.95,2.92,2.92,.17,.17,.29,.35,.27,.6-.03,.25-.15,.44-.39,.54-.24,.09-.46,.07-.66-.1-.06-.05-.12-.11-.18-.17-.7-.7-1.39-1.4-2.1-2.1-.23-.23-.53-.25-.73-.05-.21,.21-.2,.49,.04,.73,.63,.64,1.27,1.28,1.9,1.91,.16,.16,.28,.34,.26,.58-.02,.27-.15,.46-.4,.56-.27,.1-.51,.05-.71-.16-.45-.45-.89-.89-1.34-1.34-.34-.34-.6-.33-.9,.03-.25-.15-.49-.29-.74-.44,.12-.49,.09-.99-.22-1.43-.31-.45-.76-.66-1.29-.71-.38-1.4-1.12-1.86-2.36-1.45-.03-.05-.06-.1-.08-.16-.51-1.03-1.78-1.25-2.61-.47-.25,.24-.51,.47-.8,.73-.28-.22-.61-.49-.96-.76,.68-1.7,1.36-3.39,2.03-5.06,.39,.09,.76,.2,1.14,.25,.62,.08,1.22,0,1.82-.21,.94-.32,1.81-.35,2.61-.1-.07,.05-.13,.09-.19,.12-.33,.19-.67,.36-1,.55-.72,.42-1.07,1.18-.91,1.98,.15,.76,.79,1.36,1.61,1.43,.31,.02,.64-.05,.94-.15,.8-.27,1.6-.57,2.39-.87,.53-.2,.97-.1,1.37,.3,1.26,1.27,2.53,2.54,3.79,3.8,.17,.17,.3,.36,.27,.62Zm.25-1.49c-.07-.06-.13-.12-.19-.18-1.14-1.15-2.29-2.29-3.43-3.44-.68-.68-1.46-.87-2.37-.53-.83,.31-1.67,.62-2.5,.91-.55,.2-1.07-.09-1.17-.63-.06-.33,.03-.65,.32-.81,.97-.54,1.93-1.1,2.94-1.54,.85-.38,1.76-.33,2.64-.02,1.04,.37,2.05,.39,3.11-.03,.73,1.83,1.46,3.63,2.19,5.46-.51,.27-1.01,.54-1.52,.81Zm2.73-.42c-.99-2.45-1.96-4.89-2.95-7.34,.96-.52,1.9-1.01,2.87-1.54,.46,2.81,.92,5.6,1.38,8.41-.43,.16-.85,.31-1.3,.47Z"/>
  </g>
  <g>
    <path class="cls-1" d="M16.65,2.96c0,.91-.74,1.65-1.65,1.65s-1.65-.74-1.65-1.65,.74-1.65,1.65-1.65,1.65,.74,1.65,1.65"/>
    <path class="cls-1" d="M16.46,6.98c0,.81-.65,1.46-1.46,1.46s-1.46-.65-1.46-1.46,.65-1.46,1.46-1.46,1.46,.65,1.46,1.46"/>
    <path class="cls-1" d="M14.13,10.41c0,.81-.65,1.46-1.46,1.46s-1.46-.65-1.46-1.46,.65-1.46,1.46-1.46,1.46,.65,1.46,1.46"/>
    <path class="cls-1" d="M18.79,10.41c0,.81-.65,1.46-1.46,1.46s-1.46-.65-1.46-1.46,.65-1.46,1.46-1.46,1.46,.65,1.46,1.46"/>
    <path class="cls-1" d="M20.95,6.52c0,.81-.65,1.46-1.46,1.46s-1.46-.65-1.46-1.46,.65-1.46,1.46-1.46,1.46,.65,1.46,1.46"/>
    <path class="cls-1" d="M11.97,6.52c0,.81-.65,1.46-1.46,1.46s-1.46-.65-1.46-1.46,.65-1.46,1.46-1.46,1.46,.65,1.46,1.46"/>
  </g>
</svg>