<?xml version="1.0" encoding="UTF-8"?>
<svg id="Layer_1" data-name="Layer 1" xmlns="http://www.w3.org/2000/svg" width="30" height="30" viewBox="0 0 30 30">
  <defs>
    <style>
      .cls-1 {
        fill: #094c47;
      }
    </style>
  </defs>
  <g id="K4vVT9.tif">
    <g>
      <path class="cls-1" d="M14.03,19.07c0-1.75-1.26-3-3-3.01-2.2,0-4.41,0-6.61,0-1.74,0-3,1.26-3,3.01,0,2.21,0,4.41,0,6.62,0,1.74,1.26,3,3,3.01,1.1,0,2.2,0,3.3,0s2.2,0,3.3,0c1.74,0,3-1.26,3-3.01,0-2.21,0-4.41,0-6.62Zm-1.94,3.3c0,1.09,0,2.19,0,3.28,0,.72-.38,1.1-1.11,1.1-2.17,0-4.34,0-6.52,0-.72,0-1.11-.38-1.11-1.1,0-2.18,0-4.37,0-6.56,0-.7,.38-1.09,1.09-1.09,2.18,0,4.37,0,6.55,0,.72,0,1.09,.39,1.1,1.11,0,1.08,0,2.17,0,3.25Z"/>
      <path class="cls-1" d="M21.7,9.57c-1.39-2.25-2.77-4.51-4.16-6.77-1.23-2-3.85-2-5.09,0-1.4,2.26-2.78,4.53-4.17,6.79-.61,1-.68,2.03-.1,3.05,.57,1.01,1.48,1.49,2.63,1.49h4.18c1.38,0,2.77,0,4.15,0,1.18,0,2.11-.47,2.68-1.51,.57-1.03,.49-2.06-.13-3.05Zm-1.58,2.12c-.23,.4-.6,.5-1.03,.5-1.36,0-2.73,0-4.09,0s-2.77,0-4.15,0c-.42,0-.76-.12-.97-.49-.22-.38-.14-.75,.08-1.11,1.38-2.23,2.75-4.47,4.13-6.71,.5-.82,1.32-.82,1.82,0,1.37,2.23,2.74,4.46,4.11,6.69,.23,.37,.33,.74,.1,1.14Z"/>
      <path class="cls-1" d="M22.31,16.06c-3.48,0-6.33,2.81-6.34,6.25,0,3.55,2.8,6.38,6.34,6.38,3.46,0,6.28-2.85,6.28-6.34,0-3.44-2.84-6.28-6.28-6.29Zm0,10.69c-2.42,0-4.4-1.95-4.39-4.37,0-2.42,1.95-4.37,4.38-4.38,2.39,0,4.35,1.97,4.35,4.38,0,2.38-1.96,4.36-4.33,4.36Z"/>
    </g>
  </g>
</svg>